<svg xmlns="http://www.w3.org/2000/svg" version="1.1" xmlns:xlink="http://www.w3.org/1999/xlink" xmlns:svgjs="http://svgjs.com/svgjs" width="1440" height="300" preserveAspectRatio="none" viewBox="0 0 1440 300"><g mask="url(&quot;#SvgjsMask1032&quot;)" fill="none"><rect width="1440" height="300" x="0" y="0" fill="url(#SvgjsLinearGradient1033)"></rect><path d="M 0,67 C 72,73.8 216,101.6 360,101 C 504,100.4 576,56.6 720,64 C 864,71.4 936,143.2 1080,138 C 1224,132.8 1368,58 1440,38L1440 300L0 300z" fill="rgba(255, 215, 0, 1)"></path><path d="M 0,177 C 96,187.6 288,225.6 480,230 C 672,234.4 768,191.8 960,199 C 1152,206.2 1344,252.6 1440,266L1440 300L0 300z" fill="rgba(0, 0, 0, 1)"></path></g><defs><mask id="SvgjsMask1032"><rect width="1440" height="300" fill="#ffffff"></rect></mask><linearGradient x1="19.79%" y1="-95%" x2="80.21%" y2="195%" gradientUnits="userSpaceOnUse" id="SvgjsLinearGradient1033"><stop stop-color="#0e2a47" offset="0"></stop><stop stop-color="rgba(151, 151, 151, 0)" offset="0"></stop></linearGradient></defs></svg>