<svg xmlns="http://www.w3.org/2000/svg" version="1.1" xmlns:xlink="http://www.w3.org/1999/xlink" xmlns:svgjs="http://svgjs.com/svgjs" width="1440" height="150" preserveAspectRatio="none" viewBox="0 0 1440 150"><g mask="url(&quot;#SvgjsMask1156&quot;)" fill="none"><rect width="1440" height="150" x="0" y="0" fill="url(#SvgjsLinearGradient1157)"></rect><path d="M 0,45 C 48,42.2 144,26.8 240,31 C 336,35.2 384,67.8 480,66 C 576,64.2 624,23 720,22 C 816,21 864,61.6 960,61 C 1056,60.4 1104,16.8 1200,19 C 1296,21.2 1392,61.4 1440,72L1440 150L0 150z" fill="rgba(255, 215, 0, 1)"></path><path d="M 0,131 C 72,126.8 216,113.2 360,110 C 504,106.8 576,120 720,115 C 864,110 936,80.4 1080,85 C 1224,89.6 1368,127.4 1440,138L1440 150L0 150z" fill="rgba(0, 0, 0, 1)"></path></g><defs><mask id="SvgjsMask1156"><rect width="1440" height="150" fill="#ffffff"></rect></mask><linearGradient x1="22.4%" y1="-215%" x2="77.6%" y2="315%" gradientUnits="userSpaceOnUse" id="SvgjsLinearGradient1157"><stop stop-color="#0e2a47" offset="0"></stop><stop stop-color="rgba(151, 151, 151, 0)" offset="0"></stop></linearGradient></defs></svg>